<svg width="1396" height="1428" viewBox="0 0 1396 1428" fill="none" xmlns="http://www.w3.org/2000/svg">
<rect x="2" y="618" width="176" height="176" rx="6" fill="white" stroke="#CCCCCC" stroke-width="4" stroke-miterlimit="0" stroke-linecap="round"/>
<path d="M71.7524 704.148H69.9797C69.9115 703.769 69.7846 703.436 69.599 703.148C69.4134 702.86 69.1861 702.616 68.9172 702.415C68.6483 702.214 68.3471 702.062 68.0138 701.96C67.6843 701.858 67.3339 701.807 66.9627 701.807C66.2922 701.807 65.6918 701.975 65.1615 702.312C64.635 702.65 64.2183 703.144 63.9115 703.795C63.6085 704.447 63.457 705.242 63.457 706.182C63.457 707.129 63.6085 707.928 63.9115 708.58C64.2183 709.231 64.6369 709.723 65.1672 710.057C65.6975 710.39 66.2941 710.557 66.957 710.557C67.3244 710.557 67.6729 710.508 68.0024 710.409C68.3358 710.307 68.6369 710.157 68.9058 709.96C69.1748 709.763 69.4021 709.523 69.5877 709.239C69.7771 708.951 69.9077 708.621 69.9797 708.25L71.7524 708.256C71.6577 708.828 71.474 709.354 71.2013 709.835C70.9324 710.312 70.5858 710.725 70.1615 711.074C69.7411 711.419 69.26 711.686 68.7183 711.875C68.1767 712.064 67.5858 712.159 66.9456 712.159C65.938 712.159 65.0403 711.92 64.2524 711.443C63.4646 710.962 62.8433 710.275 62.3888 709.381C61.938 708.487 61.7127 707.42 61.7127 706.182C61.7127 704.939 61.9399 703.873 62.3945 702.983C62.849 702.089 63.4702 701.403 64.2581 700.926C65.046 700.445 65.9418 700.205 66.9456 700.205C67.563 700.205 68.1388 700.294 68.6729 700.472C69.2108 700.646 69.6937 700.903 70.1217 701.244C70.5498 701.581 70.9039 701.994 71.1842 702.483C71.4646 702.968 71.6539 703.523 71.7524 704.148ZM76.0807 712.193C75.5277 712.193 75.0277 712.091 74.5807 711.886C74.1337 711.678 73.7796 711.377 73.5182 710.983C73.2606 710.589 73.1318 710.106 73.1318 709.534C73.1318 709.042 73.2265 708.636 73.4159 708.318C73.6053 708 73.861 707.748 74.183 707.562C74.5049 707.377 74.8648 707.237 75.2625 707.142C75.6602 707.047 76.0655 706.975 76.4784 706.926C77.0011 706.866 77.4254 706.816 77.7511 706.778C78.0769 706.737 78.3136 706.67 78.4614 706.58C78.6091 706.489 78.683 706.341 78.683 706.136V706.097C78.683 705.6 78.5428 705.216 78.2625 704.943C77.986 704.67 77.5731 704.534 77.0239 704.534C76.4519 704.534 76.0011 704.661 75.6716 704.915C75.3458 705.165 75.1205 705.443 74.9955 705.75L73.3989 705.386C73.5883 704.856 73.8648 704.428 74.2284 704.102C74.5958 703.773 75.0182 703.534 75.4955 703.386C75.9727 703.235 76.4746 703.159 77.0011 703.159C77.3496 703.159 77.719 703.201 78.1091 703.284C78.503 703.364 78.8705 703.511 79.2114 703.727C79.5561 703.943 79.8383 704.252 80.058 704.653C80.2777 705.051 80.3875 705.568 80.3875 706.205V712H78.7284V710.807H78.6602C78.5504 711.027 78.3856 711.242 78.1659 711.455C77.9462 711.667 77.664 711.843 77.3193 711.983C76.9746 712.123 76.5618 712.193 76.0807 712.193ZM76.45 710.83C76.9197 710.83 77.3212 710.737 77.6546 710.551C77.9917 710.366 78.2474 710.123 78.4216 709.824C78.5996 709.521 78.6886 709.197 78.6886 708.852V707.727C78.628 707.788 78.5106 707.845 78.3364 707.898C78.1659 707.947 77.9708 707.991 77.7511 708.028C77.5315 708.062 77.3174 708.095 77.1091 708.125C76.9008 708.152 76.7265 708.174 76.5864 708.193C76.2568 708.235 75.9557 708.305 75.683 708.403C75.414 708.502 75.1981 708.644 75.0352 708.83C74.8761 709.011 74.7966 709.254 74.7966 709.557C74.7966 709.977 74.9519 710.295 75.2625 710.511C75.5731 710.723 75.969 710.83 76.45 710.83ZM86.5482 703.273V704.636H81.7811V703.273H86.5482ZM83.0595 701.182H84.7584V709.438C84.7584 709.767 84.8076 710.015 84.9061 710.182C85.0046 710.345 85.1315 710.456 85.2868 710.517C85.4459 710.574 85.6182 710.602 85.8038 710.602C85.9402 710.602 86.0595 710.593 86.1618 710.574C86.2641 710.555 86.3436 710.54 86.4004 710.528L86.7073 711.932C86.6088 711.97 86.4686 712.008 86.2868 712.045C86.105 712.087 85.8777 712.11 85.605 712.114C85.158 712.121 84.7413 712.042 84.355 711.875C83.9686 711.708 83.6561 711.451 83.4175 711.102C83.1788 710.754 83.0595 710.316 83.0595 709.79V701.182ZM90.7912 712.193C90.2382 712.193 89.7382 712.091 89.2912 711.886C88.8442 711.678 88.4901 711.377 88.2287 710.983C87.9711 710.589 87.8423 710.106 87.8423 709.534C87.8423 709.042 87.937 708.636 88.1264 708.318C88.3158 708 88.5715 707.748 88.8935 707.562C89.2154 707.377 89.5753 707.237 89.973 707.142C90.3707 707.047 90.776 706.975 91.1889 706.926C91.7116 706.866 92.1359 706.816 92.4616 706.778C92.7874 706.737 93.0241 706.67 93.1719 706.58C93.3196 706.489 93.3935 706.341 93.3935 706.136V706.097C93.3935 705.6 93.2533 705.216 92.973 704.943C92.6965 704.67 92.2836 704.534 91.7344 704.534C91.1624 704.534 90.7116 704.661 90.3821 704.915C90.0563 705.165 89.831 705.443 89.706 705.75L88.1094 705.386C88.2988 704.856 88.5753 704.428 88.9389 704.102C89.3063 703.773 89.7287 703.534 90.206 703.386C90.6832 703.235 91.1851 703.159 91.7116 703.159C92.0601 703.159 92.4295 703.201 92.8196 703.284C93.2135 703.364 93.581 703.511 93.9219 703.727C94.2666 703.943 94.5488 704.252 94.7685 704.653C94.9882 705.051 95.098 705.568 95.098 706.205V712H93.4389V710.807H93.3707C93.2609 711.027 93.0961 711.242 92.8764 711.455C92.6567 711.667 92.3745 711.843 92.0298 711.983C91.6851 712.123 91.2723 712.193 90.7912 712.193ZM91.1605 710.83C91.6302 710.83 92.0317 710.737 92.3651 710.551C92.7022 710.366 92.9579 710.123 93.1321 709.824C93.3101 709.521 93.3991 709.197 93.3991 708.852V707.727C93.3385 707.788 93.2211 707.845 93.0469 707.898C92.8764 707.947 92.6813 707.991 92.4616 708.028C92.242 708.062 92.0279 708.095 91.8196 708.125C91.6113 708.152 91.437 708.174 91.2969 708.193C90.9673 708.235 90.6662 708.305 90.3935 708.403C90.1245 708.502 89.9086 708.644 89.7457 708.83C89.5866 709.011 89.5071 709.254 89.5071 709.557C89.5071 709.977 89.6624 710.295 89.973 710.511C90.2836 710.723 90.6795 710.83 91.1605 710.83ZM98.8837 700.364V712H97.1848V700.364H98.8837ZM104.669 712.176C103.851 712.176 103.137 711.989 102.527 711.614C101.917 711.239 101.444 710.714 101.107 710.04C100.77 709.366 100.601 708.578 100.601 707.676C100.601 706.771 100.77 705.979 101.107 705.301C101.444 704.623 101.917 704.097 102.527 703.722C103.137 703.347 103.851 703.159 104.669 703.159C105.487 703.159 106.201 703.347 106.811 703.722C107.421 704.097 107.895 704.623 108.232 705.301C108.569 705.979 108.737 706.771 108.737 707.676C108.737 708.578 108.569 709.366 108.232 710.04C107.895 710.714 107.421 711.239 106.811 711.614C106.201 711.989 105.487 712.176 104.669 712.176ZM104.675 710.75C105.205 710.75 105.645 710.61 105.993 710.33C106.342 710.049 106.599 709.676 106.766 709.21C106.936 708.744 107.022 708.231 107.022 707.67C107.022 707.114 106.936 706.602 106.766 706.136C106.599 705.667 106.342 705.29 105.993 705.006C105.645 704.722 105.205 704.58 104.675 704.58C104.141 704.58 103.698 704.722 103.345 705.006C102.997 705.29 102.737 705.667 102.567 706.136C102.4 706.602 102.317 707.114 102.317 707.67C102.317 708.231 102.4 708.744 102.567 709.21C102.737 709.676 102.997 710.049 103.345 710.33C103.698 710.61 104.141 710.75 104.675 710.75ZM114.117 715.455C113.424 715.455 112.827 715.364 112.327 715.182C111.831 715 111.426 714.759 111.111 714.46C110.797 714.161 110.562 713.833 110.407 713.477L111.867 712.875C111.969 713.042 112.106 713.218 112.276 713.403C112.45 713.593 112.685 713.754 112.981 713.886C113.28 714.019 113.664 714.085 114.134 714.085C114.778 714.085 115.31 713.928 115.731 713.614C116.151 713.303 116.361 712.807 116.361 712.125V710.409H116.253C116.151 710.595 116.003 710.801 115.81 711.028C115.621 711.256 115.359 711.453 115.026 711.619C114.693 711.786 114.259 711.869 113.725 711.869C113.035 711.869 112.414 711.708 111.861 711.386C111.312 711.061 110.876 710.581 110.554 709.949C110.236 709.312 110.077 708.53 110.077 707.602C110.077 706.674 110.234 705.879 110.549 705.216C110.867 704.553 111.302 704.045 111.856 703.693C112.409 703.337 113.035 703.159 113.736 703.159C114.278 703.159 114.715 703.25 115.049 703.432C115.382 703.61 115.642 703.818 115.827 704.057C116.017 704.295 116.162 704.506 116.265 704.688H116.39V703.273H118.054V712.193C118.054 712.943 117.88 713.559 117.532 714.04C117.183 714.521 116.712 714.877 116.117 715.108C115.526 715.339 114.859 715.455 114.117 715.455ZM114.1 710.46C114.588 710.46 115.001 710.347 115.338 710.119C115.679 709.888 115.937 709.559 116.111 709.131C116.289 708.699 116.378 708.182 116.378 707.58C116.378 706.992 116.291 706.475 116.117 706.028C115.943 705.581 115.687 705.233 115.35 704.983C115.013 704.729 114.596 704.602 114.1 704.602C113.588 704.602 113.162 704.735 112.821 705C112.481 705.261 112.223 705.617 112.049 706.068C111.878 706.519 111.793 707.023 111.793 707.58C111.793 708.152 111.88 708.653 112.054 709.085C112.229 709.517 112.486 709.854 112.827 710.097C113.172 710.339 113.596 710.46 114.1 710.46Z" fill="black" fill-opacity="0.8"/>
<rect x="338" y="2" width="176" height="176" rx="6" fill="white" stroke="#CCCCCC" stroke-width="4" stroke-miterlimit="0" stroke-linecap="round"/>
<path d="M382.348 96V84.3636H389.564V85.875H384.104V89.4205H389.047V90.9261H384.104V96H382.348ZM394.446 96.1761C393.628 96.1761 392.914 95.9886 392.304 95.6136C391.694 95.2386 391.221 94.714 390.884 94.0398C390.546 93.3655 390.378 92.5777 390.378 91.6761C390.378 90.7708 390.546 89.9792 390.884 89.3011C391.221 88.6231 391.694 88.0966 392.304 87.7216C392.914 87.3466 393.628 87.1591 394.446 87.1591C395.264 87.1591 395.978 87.3466 396.588 87.7216C397.198 88.0966 397.671 88.6231 398.009 89.3011C398.346 89.9792 398.514 90.7708 398.514 91.6761C398.514 92.5777 398.346 93.3655 398.009 94.0398C397.671 94.714 397.198 95.2386 396.588 95.6136C395.978 95.9886 395.264 96.1761 394.446 96.1761ZM394.452 94.75C394.982 94.75 395.421 94.6098 395.77 94.3295C396.118 94.0492 396.376 93.6761 396.543 93.2102C396.713 92.7443 396.798 92.2311 396.798 91.6705C396.798 91.1136 396.713 90.6023 396.543 90.1364C396.376 89.6667 396.118 89.2898 395.77 89.0057C395.421 88.7216 394.982 88.5795 394.452 88.5795C393.918 88.5795 393.475 88.7216 393.122 89.0057C392.774 89.2898 392.514 89.6667 392.344 90.1364C392.177 90.6023 392.094 91.1136 392.094 91.6705C392.094 92.2311 392.177 92.7443 392.344 93.2102C392.514 93.6761 392.774 94.0492 393.122 94.3295C393.475 94.6098 393.918 94.75 394.452 94.75ZM401.933 90.8182V96H400.235V87.2727H401.865V88.6932H401.973C402.174 88.2311 402.488 87.8598 402.916 87.5795C403.348 87.2992 403.892 87.1591 404.547 87.1591C405.142 87.1591 405.663 87.2841 406.11 87.5341C406.557 87.7803 406.903 88.1477 407.149 88.6364C407.396 89.125 407.519 89.7292 407.519 90.4489V96H405.82V90.6534C405.82 90.0208 405.655 89.5265 405.326 89.1705C404.996 88.8106 404.543 88.6307 403.968 88.6307C403.574 88.6307 403.223 88.7159 402.916 88.8864C402.613 89.0568 402.373 89.3068 402.195 89.6364C402.021 89.9621 401.933 90.3561 401.933 90.8182ZM413.695 87.2727V88.6364H408.928V87.2727H413.695ZM410.206 85.1818H411.905V93.4375C411.905 93.767 411.954 94.0152 412.053 94.1818C412.151 94.3447 412.278 94.4564 412.434 94.517C412.593 94.5739 412.765 94.6023 412.951 94.6023C413.087 94.6023 413.206 94.5928 413.309 94.5739C413.411 94.5549 413.49 94.5398 413.547 94.5284L413.854 95.9318C413.756 95.9697 413.615 96.0076 413.434 96.0455C413.252 96.0871 413.025 96.1098 412.752 96.1136C412.305 96.1212 411.888 96.0417 411.502 95.875C411.115 95.7083 410.803 95.4508 410.564 95.1023C410.326 94.7538 410.206 94.3163 410.206 93.7898V85.1818ZM419.593 96V84.3636H421.349V94.4886H426.621V96H419.593ZM428.312 96V87.2727H430.011V96H428.312ZM429.17 85.9261C428.874 85.9261 428.621 85.8277 428.408 85.6307C428.2 85.4299 428.096 85.1913 428.096 84.9148C428.096 84.6345 428.2 84.3958 428.408 84.1989C428.621 83.9981 428.874 83.8977 429.17 83.8977C429.465 83.8977 429.717 83.9981 429.925 84.1989C430.138 84.3958 430.244 84.6345 430.244 84.9148C430.244 85.1913 430.138 85.4299 429.925 85.6307C429.717 85.8277 429.465 85.9261 429.17 85.9261ZM432.257 96V84.3636H433.955V88.6875H434.058C434.156 88.5057 434.298 88.2955 434.484 88.0568C434.669 87.8182 434.927 87.6098 435.257 87.4318C435.586 87.25 436.022 87.1591 436.563 87.1591C437.268 87.1591 437.897 87.3371 438.45 87.6932C439.003 88.0492 439.437 88.5625 439.751 89.233C440.069 89.9034 440.228 90.7102 440.228 91.6534C440.228 92.5966 440.071 93.4053 439.757 94.0795C439.442 94.75 439.01 95.267 438.461 95.6307C437.912 95.9905 437.285 96.1705 436.58 96.1705C436.05 96.1705 435.616 96.0814 435.279 95.9034C434.946 95.7254 434.685 95.517 434.495 95.2784C434.306 95.0398 434.16 94.8277 434.058 94.642H433.916V96H432.257ZM433.921 91.6364C433.921 92.25 434.01 92.7879 434.188 93.25C434.366 93.7121 434.624 94.0739 434.961 94.3352C435.298 94.5928 435.711 94.7216 436.2 94.7216C436.707 94.7216 437.132 94.5871 437.473 94.3182C437.813 94.0455 438.071 93.6761 438.245 93.2102C438.423 92.7443 438.512 92.2197 438.512 91.6364C438.512 91.0606 438.425 90.5436 438.251 90.0852C438.08 89.6269 437.823 89.2652 437.478 89C437.137 88.7348 436.711 88.6023 436.2 88.6023C435.707 88.6023 435.291 88.7292 434.95 88.983C434.613 89.2367 434.357 89.5909 434.183 90.0455C434.008 90.5 433.921 91.0303 433.921 91.6364ZM441.96 96V87.2727H443.602V88.6591H443.693C443.852 88.1894 444.132 87.8201 444.534 87.5511C444.939 87.2784 445.397 87.142 445.909 87.142C446.015 87.142 446.14 87.1458 446.284 87.1534C446.431 87.161 446.547 87.1705 446.63 87.1818V88.8068C446.562 88.7879 446.441 88.767 446.267 88.7443C446.092 88.7178 445.918 88.7045 445.744 88.7045C445.342 88.7045 444.984 88.7898 444.67 88.9602C444.359 89.1269 444.113 89.3598 443.931 89.6591C443.75 89.9545 443.659 90.2917 443.659 90.6705V96H441.96ZM450.386 96.1932C449.833 96.1932 449.333 96.0909 448.886 95.8864C448.439 95.678 448.085 95.3769 447.824 94.983C447.566 94.589 447.437 94.1061 447.437 93.5341C447.437 93.0417 447.532 92.6364 447.721 92.3182C447.911 92 448.166 91.7481 448.488 91.5625C448.81 91.3769 449.17 91.2367 449.568 91.142C449.966 91.0473 450.371 90.9754 450.784 90.9261C451.307 90.8655 451.731 90.8163 452.057 90.7784C452.382 90.7367 452.619 90.6705 452.767 90.5795C452.915 90.4886 452.988 90.3409 452.988 90.1364V90.0966C452.988 89.6004 452.848 89.2159 452.568 88.9432C452.291 88.6705 451.879 88.5341 451.329 88.5341C450.757 88.5341 450.307 88.661 449.977 88.9148C449.651 89.1648 449.426 89.4432 449.301 89.75L447.704 89.3864C447.894 88.8561 448.17 88.428 448.534 88.1023C448.901 87.7727 449.324 87.5341 449.801 87.3864C450.278 87.2348 450.78 87.1591 451.307 87.1591C451.655 87.1591 452.024 87.2008 452.415 87.2841C452.808 87.3636 453.176 87.5114 453.517 87.7273C453.862 87.9432 454.144 88.2519 454.363 88.6534C454.583 89.0511 454.693 89.5682 454.693 90.2045V96H453.034V94.8068H452.966C452.856 95.0265 452.691 95.2424 452.471 95.4545C452.252 95.6667 451.969 95.8428 451.625 95.983C451.28 96.1231 450.867 96.1932 450.386 96.1932ZM450.755 94.8295C451.225 94.8295 451.627 94.7367 451.96 94.5511C452.297 94.3655 452.553 94.1231 452.727 93.8239C452.905 93.5208 452.994 93.197 452.994 92.8523V91.7273C452.933 91.7879 452.816 91.8447 452.642 91.8977C452.471 91.947 452.276 91.9905 452.057 92.0284C451.837 92.0625 451.623 92.0947 451.415 92.125C451.206 92.1515 451.032 92.1742 450.892 92.1932C450.562 92.2348 450.261 92.3049 449.988 92.4034C449.719 92.5019 449.504 92.6439 449.341 92.8295C449.182 93.0114 449.102 93.2538 449.102 93.5568C449.102 93.9773 449.257 94.2955 449.568 94.5114C449.879 94.7235 450.274 94.8295 450.755 94.8295ZM456.78 96V87.2727H458.422V88.6591H458.513C458.672 88.1894 458.952 87.8201 459.354 87.5511C459.759 87.2784 460.217 87.142 460.729 87.142C460.835 87.142 460.96 87.1458 461.104 87.1534C461.251 87.161 461.367 87.1705 461.45 87.1818V88.8068C461.382 88.7879 461.261 88.767 461.087 88.7443C460.912 88.7178 460.738 88.7045 460.564 88.7045C460.162 88.7045 459.804 88.7898 459.49 88.9602C459.179 89.1269 458.933 89.3598 458.751 89.6591C458.569 89.9545 458.479 90.2917 458.479 90.6705V96H456.78ZM464.084 99.2727C463.83 99.2727 463.599 99.2519 463.391 99.2102C463.182 99.1723 463.027 99.1307 462.925 99.0852L463.334 97.6932C463.644 97.7765 463.921 97.8125 464.163 97.8011C464.406 97.7898 464.62 97.6989 464.805 97.5284C464.995 97.358 465.161 97.0795 465.305 96.6932L465.516 96.1136L462.322 87.2727H464.141L466.351 94.0455H466.442L468.652 87.2727H470.476L466.879 97.1648C466.713 97.6193 466.501 98.0038 466.243 98.3182C465.985 98.6364 465.679 98.875 465.322 99.0341C464.966 99.1932 464.554 99.2727 464.084 99.2727Z" fill="black" fill-opacity="0.8"/>
<rect x="338" y="394" width="176" height="176" rx="6" fill="white" stroke="#CCCCCC" stroke-width="4" stroke-miterlimit="0" stroke-linecap="round"/>
<path d="M371.323 488V476.364H375.471C376.372 476.364 377.12 476.519 377.715 476.83C378.313 477.14 378.76 477.57 379.056 478.119C379.351 478.665 379.499 479.295 379.499 480.011C379.499 480.723 379.349 481.35 379.05 481.892C378.755 482.43 378.308 482.848 377.709 483.148C377.115 483.447 376.366 483.597 375.465 483.597H372.323V482.085H375.306C375.874 482.085 376.336 482.004 376.692 481.841C377.052 481.678 377.315 481.441 377.482 481.131C377.649 480.82 377.732 480.447 377.732 480.011C377.732 479.572 377.647 479.191 377.476 478.869C377.31 478.547 377.046 478.301 376.687 478.131C376.33 477.956 375.863 477.869 375.283 477.869H373.079V488H371.323ZM377.067 482.75L379.942 488H377.942L375.124 482.75H377.067ZM384.975 488.176C384.115 488.176 383.375 487.992 382.753 487.625C382.136 487.254 381.659 486.733 381.322 486.062C380.988 485.388 380.822 484.598 380.822 483.693C380.822 482.799 380.988 482.011 381.322 481.33C381.659 480.648 382.128 480.116 382.731 479.733C383.337 479.35 384.045 479.159 384.856 479.159C385.348 479.159 385.825 479.241 386.288 479.403C386.75 479.566 387.164 479.822 387.532 480.17C387.899 480.519 388.189 480.972 388.401 481.528C388.613 482.081 388.719 482.754 388.719 483.545V484.148H381.782V482.875H387.055C387.055 482.428 386.964 482.032 386.782 481.688C386.6 481.339 386.344 481.064 386.015 480.864C385.689 480.663 385.306 480.562 384.867 480.562C384.39 480.562 383.973 480.68 383.617 480.915C383.265 481.146 382.992 481.449 382.799 481.824C382.61 482.195 382.515 482.598 382.515 483.034V484.028C382.515 484.612 382.617 485.108 382.822 485.517C383.03 485.926 383.32 486.239 383.691 486.455C384.062 486.667 384.496 486.773 384.992 486.773C385.314 486.773 385.608 486.727 385.873 486.636C386.138 486.542 386.367 486.402 386.56 486.216C386.753 486.03 386.901 485.801 387.003 485.528L388.611 485.818C388.483 486.292 388.252 486.706 387.918 487.062C387.589 487.415 387.174 487.689 386.674 487.886C386.178 488.08 385.611 488.176 384.975 488.176ZM394.582 479.273V480.636H389.65V479.273H394.582ZM391.002 488V478.261C391.002 477.716 391.121 477.263 391.36 476.903C391.599 476.54 391.915 476.269 392.309 476.091C392.703 475.909 393.131 475.818 393.593 475.818C393.934 475.818 394.226 475.847 394.468 475.903C394.71 475.956 394.89 476.006 395.008 476.051L394.61 477.426C394.531 477.403 394.428 477.377 394.303 477.347C394.178 477.312 394.027 477.295 393.849 477.295C393.436 477.295 393.14 477.398 392.962 477.602C392.788 477.807 392.701 478.102 392.701 478.489V488H391.002ZM396.159 488V479.273H397.857V488H396.159ZM397.016 477.926C396.721 477.926 396.467 477.828 396.255 477.631C396.047 477.43 395.943 477.191 395.943 476.915C395.943 476.634 396.047 476.396 396.255 476.199C396.467 475.998 396.721 475.898 397.016 475.898C397.312 475.898 397.564 475.998 397.772 476.199C397.984 476.396 398.09 476.634 398.09 476.915C398.09 477.191 397.984 477.43 397.772 477.631C397.564 477.828 397.312 477.926 397.016 477.926ZM401.666 482.818V488H399.967V479.273H401.598V480.693H401.706C401.906 480.231 402.221 479.86 402.649 479.58C403.081 479.299 403.624 479.159 404.279 479.159C404.874 479.159 405.395 479.284 405.842 479.534C406.289 479.78 406.635 480.148 406.882 480.636C407.128 481.125 407.251 481.729 407.251 482.449V488H405.552V482.653C405.552 482.021 405.387 481.527 405.058 481.17C404.728 480.811 404.276 480.631 403.7 480.631C403.306 480.631 402.956 480.716 402.649 480.886C402.346 481.057 402.105 481.307 401.927 481.636C401.753 481.962 401.666 482.356 401.666 482.818ZM413.115 488.176C412.255 488.176 411.514 487.992 410.893 487.625C410.276 487.254 409.798 486.733 409.461 486.062C409.128 485.388 408.961 484.598 408.961 483.693C408.961 482.799 409.128 482.011 409.461 481.33C409.798 480.648 410.268 480.116 410.87 479.733C411.477 479.35 412.185 479.159 412.995 479.159C413.488 479.159 413.965 479.241 414.427 479.403C414.889 479.566 415.304 479.822 415.672 480.17C416.039 480.519 416.329 480.972 416.541 481.528C416.753 482.081 416.859 482.754 416.859 483.545V484.148H409.922V482.875H415.194C415.194 482.428 415.103 482.032 414.922 481.688C414.74 481.339 414.484 481.064 414.155 480.864C413.829 480.663 413.446 480.562 413.007 480.562C412.53 480.562 412.113 480.68 411.757 480.915C411.405 481.146 411.132 481.449 410.939 481.824C410.749 482.195 410.655 482.598 410.655 483.034V484.028C410.655 484.612 410.757 485.108 410.961 485.517C411.17 485.926 411.459 486.239 411.831 486.455C412.202 486.667 412.636 486.773 413.132 486.773C413.454 486.773 413.747 486.727 414.013 486.636C414.278 486.542 414.507 486.402 414.7 486.216C414.893 486.03 415.041 485.801 415.143 485.528L416.751 485.818C416.622 486.292 416.391 486.706 416.058 487.062C415.728 487.415 415.314 487.689 414.814 487.886C414.317 488.08 413.751 488.176 413.115 488.176ZM421.835 488.17C421.131 488.17 420.502 487.991 419.949 487.631C419.399 487.267 418.968 486.75 418.653 486.08C418.343 485.405 418.187 484.597 418.187 483.653C418.187 482.71 418.345 481.903 418.659 481.233C418.977 480.562 419.413 480.049 419.966 479.693C420.519 479.337 421.146 479.159 421.846 479.159C422.388 479.159 422.824 479.25 423.153 479.432C423.487 479.61 423.744 479.818 423.926 480.057C424.112 480.295 424.256 480.506 424.358 480.688H424.46V476.364H426.159V488H424.5V486.642H424.358C424.256 486.828 424.108 487.04 423.915 487.278C423.725 487.517 423.464 487.725 423.131 487.903C422.797 488.081 422.365 488.17 421.835 488.17ZM422.21 486.722C422.699 486.722 423.112 486.593 423.449 486.335C423.79 486.074 424.047 485.712 424.221 485.25C424.399 484.788 424.488 484.25 424.488 483.636C424.488 483.03 424.401 482.5 424.227 482.045C424.053 481.591 423.797 481.237 423.46 480.983C423.123 480.729 422.706 480.602 422.21 480.602C421.699 480.602 421.273 480.735 420.932 481C420.591 481.265 420.333 481.627 420.159 482.085C419.988 482.544 419.903 483.061 419.903 483.636C419.903 484.22 419.99 484.744 420.165 485.21C420.339 485.676 420.596 486.045 420.937 486.318C421.282 486.587 421.706 486.722 422.21 486.722ZM432.466 488V479.273H434.108V480.659H434.199C434.358 480.189 434.638 479.82 435.04 479.551C435.445 479.278 435.904 479.142 436.415 479.142C436.521 479.142 436.646 479.146 436.79 479.153C436.938 479.161 437.053 479.17 437.136 479.182V480.807C437.068 480.788 436.947 480.767 436.773 480.744C436.599 480.718 436.424 480.705 436.25 480.705C435.849 480.705 435.491 480.79 435.176 480.96C434.866 481.127 434.619 481.36 434.438 481.659C434.256 481.955 434.165 482.292 434.165 482.67V488H432.466ZM441.88 488.176C441.02 488.176 440.279 487.992 439.658 487.625C439.041 487.254 438.563 486.733 438.226 486.062C437.893 485.388 437.726 484.598 437.726 483.693C437.726 482.799 437.893 482.011 438.226 481.33C438.563 480.648 439.033 480.116 439.635 479.733C440.241 479.35 440.95 479.159 441.76 479.159C442.253 479.159 442.73 479.241 443.192 479.403C443.654 479.566 444.069 479.822 444.436 480.17C444.804 480.519 445.094 480.972 445.306 481.528C445.518 482.081 445.624 482.754 445.624 483.545V484.148H438.686V482.875H443.959C443.959 482.428 443.868 482.032 443.686 481.688C443.505 481.339 443.249 481.064 442.919 480.864C442.594 480.663 442.211 480.562 441.772 480.562C441.294 480.562 440.878 480.68 440.522 480.915C440.169 481.146 439.897 481.449 439.703 481.824C439.514 482.195 439.419 482.598 439.419 483.034V484.028C439.419 484.612 439.522 485.108 439.726 485.517C439.934 485.926 440.224 486.239 440.595 486.455C440.967 486.667 441.4 486.773 441.897 486.773C442.219 486.773 442.512 486.727 442.777 486.636C443.042 486.542 443.272 486.402 443.465 486.216C443.658 486.03 443.806 485.801 443.908 485.528L445.516 485.818C445.387 486.292 445.156 486.706 444.823 487.062C444.493 487.415 444.078 487.689 443.578 487.886C443.082 488.08 442.516 488.176 441.88 488.176ZM453.873 481.403L452.333 481.676C452.268 481.479 452.166 481.292 452.026 481.114C451.89 480.936 451.704 480.79 451.469 480.676C451.234 480.562 450.941 480.506 450.588 480.506C450.107 480.506 449.706 480.614 449.384 480.83C449.062 481.042 448.901 481.316 448.901 481.653C448.901 481.945 449.009 482.18 449.225 482.358C449.441 482.536 449.789 482.682 450.27 482.795L451.657 483.114C452.46 483.299 453.058 483.585 453.452 483.972C453.846 484.358 454.043 484.86 454.043 485.477C454.043 486 453.892 486.466 453.588 486.875C453.289 487.28 452.871 487.598 452.333 487.83C451.799 488.061 451.179 488.176 450.475 488.176C449.498 488.176 448.7 487.968 448.083 487.551C447.465 487.131 447.087 486.534 446.946 485.761L448.588 485.511C448.691 485.939 448.901 486.263 449.219 486.483C449.537 486.699 449.952 486.807 450.463 486.807C451.02 486.807 451.465 486.691 451.799 486.46C452.132 486.225 452.299 485.939 452.299 485.602C452.299 485.33 452.196 485.1 451.992 484.915C451.791 484.729 451.482 484.589 451.066 484.494L449.588 484.17C448.774 483.985 448.172 483.689 447.782 483.284C447.395 482.879 447.202 482.366 447.202 481.744C447.202 481.229 447.346 480.778 447.634 480.392C447.922 480.006 448.32 479.705 448.827 479.489C449.335 479.269 449.916 479.159 450.571 479.159C451.515 479.159 452.257 479.364 452.799 479.773C453.34 480.178 453.698 480.722 453.873 481.403ZM461.263 484.381V479.273H462.968V488H461.297V486.489H461.207C461.006 486.955 460.684 487.343 460.241 487.653C459.801 487.96 459.254 488.114 458.599 488.114C458.038 488.114 457.542 487.991 457.11 487.744C456.682 487.494 456.345 487.125 456.099 486.636C455.856 486.148 455.735 485.544 455.735 484.824V479.273H457.434V484.619C457.434 485.214 457.599 485.687 457.928 486.04C458.258 486.392 458.686 486.568 459.212 486.568C459.53 486.568 459.847 486.489 460.161 486.33C460.479 486.17 460.743 485.93 460.951 485.608C461.163 485.286 461.267 484.877 461.263 484.381ZM466.773 476.364V488H465.075V476.364H466.773ZM472.957 479.273V480.636H468.19V479.273H472.957ZM469.468 477.182H471.167V485.438C471.167 485.767 471.216 486.015 471.315 486.182C471.413 486.345 471.54 486.456 471.695 486.517C471.855 486.574 472.027 486.602 472.212 486.602C472.349 486.602 472.468 486.593 472.57 486.574C472.673 486.555 472.752 486.54 472.809 486.528L473.116 487.932C473.017 487.97 472.877 488.008 472.695 488.045C472.514 488.087 472.286 488.11 472.014 488.114C471.567 488.121 471.15 488.042 470.764 487.875C470.377 487.708 470.065 487.451 469.826 487.102C469.587 486.754 469.468 486.316 469.468 485.79V477.182ZM481.059 481.403L479.519 481.676C479.455 481.479 479.353 481.292 479.213 481.114C479.076 480.936 478.891 480.79 478.656 480.676C478.421 480.562 478.127 480.506 477.775 480.506C477.294 480.506 476.893 480.614 476.571 480.83C476.249 481.042 476.088 481.316 476.088 481.653C476.088 481.945 476.196 482.18 476.411 482.358C476.627 482.536 476.976 482.682 477.457 482.795L478.843 483.114C479.646 483.299 480.245 483.585 480.639 483.972C481.033 484.358 481.23 484.86 481.23 485.477C481.23 486 481.078 486.466 480.775 486.875C480.476 487.28 480.057 487.598 479.519 487.83C478.985 488.061 478.366 488.176 477.661 488.176C476.684 488.176 475.887 487.968 475.269 487.551C474.652 487.131 474.273 486.534 474.133 485.761L475.775 485.511C475.877 485.939 476.088 486.263 476.406 486.483C476.724 486.699 477.139 486.807 477.65 486.807C478.207 486.807 478.652 486.691 478.985 486.46C479.319 486.225 479.485 485.939 479.485 485.602C479.485 485.33 479.383 485.1 479.179 484.915C478.978 484.729 478.669 484.589 478.252 484.494L476.775 484.17C475.961 483.985 475.358 483.689 474.968 483.284C474.582 482.879 474.389 482.366 474.389 481.744C474.389 481.229 474.533 480.778 474.821 480.392C475.108 480.006 475.506 479.705 476.014 479.489C476.521 479.269 477.103 479.159 477.758 479.159C478.701 479.159 479.444 479.364 479.985 479.773C480.527 480.178 480.885 480.722 481.059 481.403Z" fill="black" fill-opacity="0.8"/>
<rect x="338" y="866" width="176" height="176" rx="6" fill="white" stroke="#CCCCCC" stroke-width="4" stroke-miterlimit="0" stroke-linecap="round"/>
<path d="M392.293 960V948.364H396.441C397.342 948.364 398.09 948.519 398.685 948.83C399.283 949.14 399.73 949.57 400.026 950.119C400.321 950.665 400.469 951.295 400.469 952.011C400.469 952.723 400.319 953.35 400.02 953.892C399.725 954.43 399.278 954.848 398.679 955.148C398.085 955.447 397.336 955.597 396.435 955.597H393.293V954.085H396.276C396.844 954.085 397.306 954.004 397.662 953.841C398.022 953.678 398.285 953.441 398.452 953.131C398.619 952.82 398.702 952.447 398.702 952.011C398.702 951.572 398.617 951.191 398.446 950.869C398.28 950.547 398.016 950.301 397.656 950.131C397.3 949.956 396.833 949.869 396.253 949.869H394.049V960H392.293ZM398.037 954.75L400.912 960H398.912L396.094 954.75H398.037ZM405.945 960.176C405.085 960.176 404.345 959.992 403.723 959.625C403.106 959.254 402.629 958.733 402.292 958.062C401.958 957.388 401.792 956.598 401.792 955.693C401.792 954.799 401.958 954.011 402.292 953.33C402.629 952.648 403.098 952.116 403.701 951.733C404.307 951.35 405.015 951.159 405.826 951.159C406.318 951.159 406.795 951.241 407.257 951.403C407.72 951.566 408.134 951.822 408.502 952.17C408.869 952.519 409.159 952.972 409.371 953.528C409.583 954.081 409.689 954.754 409.689 955.545V956.148H402.752V954.875H408.025C408.025 954.428 407.934 954.032 407.752 953.688C407.57 953.339 407.314 953.064 406.985 952.864C406.659 952.663 406.276 952.562 405.837 952.562C405.36 952.562 404.943 952.68 404.587 952.915C404.235 953.146 403.962 953.449 403.769 953.824C403.579 954.195 403.485 954.598 403.485 955.034V956.028C403.485 956.612 403.587 957.108 403.792 957.517C404 957.926 404.29 958.239 404.661 958.455C405.032 958.667 405.466 958.773 405.962 958.773C406.284 958.773 406.578 958.727 406.843 958.636C407.108 958.542 407.337 958.402 407.53 958.216C407.723 958.03 407.871 957.801 407.973 957.528L409.581 957.818C409.453 958.292 409.221 958.706 408.888 959.062C408.559 959.415 408.144 959.689 407.644 959.886C407.148 960.08 406.581 960.176 405.945 960.176ZM417.938 953.403L416.398 953.676C416.334 953.479 416.232 953.292 416.091 953.114C415.955 952.936 415.769 952.79 415.535 952.676C415.3 952.562 415.006 952.506 414.654 952.506C414.173 952.506 413.771 952.614 413.449 952.83C413.127 953.042 412.966 953.316 412.966 953.653C412.966 953.945 413.074 954.18 413.29 954.358C413.506 954.536 413.855 954.682 414.336 954.795L415.722 955.114C416.525 955.299 417.124 955.585 417.518 955.972C417.911 956.358 418.108 956.86 418.108 957.477C418.108 958 417.957 958.466 417.654 958.875C417.355 959.28 416.936 959.598 416.398 959.83C415.864 960.061 415.245 960.176 414.54 960.176C413.563 960.176 412.766 959.968 412.148 959.551C411.531 959.131 411.152 958.534 411.012 957.761L412.654 957.511C412.756 957.939 412.966 958.263 413.285 958.483C413.603 958.699 414.018 958.807 414.529 958.807C415.086 958.807 415.531 958.691 415.864 958.46C416.197 958.225 416.364 957.939 416.364 957.602C416.364 957.33 416.262 957.1 416.057 956.915C415.857 956.729 415.548 956.589 415.131 956.494L413.654 956.17C412.84 955.985 412.237 955.689 411.847 955.284C411.461 954.879 411.268 954.366 411.268 953.744C411.268 953.229 411.411 952.778 411.699 952.392C411.987 952.006 412.385 951.705 412.893 951.489C413.4 951.269 413.982 951.159 414.637 951.159C415.58 951.159 416.322 951.364 416.864 951.773C417.406 952.178 417.764 952.722 417.938 953.403ZM423.562 960.176C422.702 960.176 421.961 959.992 421.34 959.625C420.723 959.254 420.245 958.733 419.908 958.062C419.575 957.388 419.408 956.598 419.408 955.693C419.408 954.799 419.575 954.011 419.908 953.33C420.245 952.648 420.715 952.116 421.317 951.733C421.923 951.35 422.632 951.159 423.442 951.159C423.935 951.159 424.412 951.241 424.874 951.403C425.336 951.566 425.751 951.822 426.119 952.17C426.486 952.519 426.776 952.972 426.988 953.528C427.2 954.081 427.306 954.754 427.306 955.545V956.148H420.369V954.875H425.641C425.641 954.428 425.55 954.032 425.369 953.688C425.187 953.339 424.931 953.064 424.601 952.864C424.276 952.663 423.893 952.562 423.454 952.562C422.976 952.562 422.56 952.68 422.204 952.915C421.851 953.146 421.579 953.449 421.386 953.824C421.196 954.195 421.101 954.598 421.101 955.034V956.028C421.101 956.612 421.204 957.108 421.408 957.517C421.617 957.926 421.906 958.239 422.278 958.455C422.649 958.667 423.083 958.773 423.579 958.773C423.901 958.773 424.194 958.727 424.459 958.636C424.725 958.542 424.954 958.402 425.147 958.216C425.34 958.03 425.488 957.801 425.59 957.528L427.198 957.818C427.069 958.292 426.838 958.706 426.505 959.062C426.175 959.415 425.761 959.689 425.261 959.886C424.764 960.08 424.198 960.176 423.562 960.176ZM431.555 960.193C431.002 960.193 430.502 960.091 430.055 959.886C429.608 959.678 429.254 959.377 428.992 958.983C428.735 958.589 428.606 958.106 428.606 957.534C428.606 957.042 428.701 956.636 428.89 956.318C429.079 956 429.335 955.748 429.657 955.562C429.979 955.377 430.339 955.237 430.737 955.142C431.134 955.047 431.54 954.975 431.952 954.926C432.475 954.866 432.899 954.816 433.225 954.778C433.551 954.737 433.788 954.67 433.935 954.58C434.083 954.489 434.157 954.341 434.157 954.136V954.097C434.157 953.6 434.017 953.216 433.737 952.943C433.46 952.67 433.047 952.534 432.498 952.534C431.926 952.534 431.475 952.661 431.146 952.915C430.82 953.165 430.595 953.443 430.47 953.75L428.873 953.386C429.062 952.856 429.339 952.428 429.702 952.102C430.07 951.773 430.492 951.534 430.97 951.386C431.447 951.235 431.949 951.159 432.475 951.159C432.824 951.159 433.193 951.201 433.583 951.284C433.977 951.364 434.345 951.511 434.685 951.727C435.03 951.943 435.312 952.252 435.532 952.653C435.752 953.051 435.862 953.568 435.862 954.205V960H434.202V958.807H434.134C434.024 959.027 433.86 959.242 433.64 959.455C433.42 959.667 433.138 959.843 432.793 959.983C432.449 960.123 432.036 960.193 431.555 960.193ZM431.924 958.83C432.394 958.83 432.795 958.737 433.129 958.551C433.466 958.366 433.721 958.123 433.896 957.824C434.074 957.521 434.163 957.197 434.163 956.852V955.727C434.102 955.788 433.985 955.845 433.81 955.898C433.64 955.947 433.445 955.991 433.225 956.028C433.006 956.062 432.792 956.095 432.583 956.125C432.375 956.152 432.201 956.174 432.06 956.193C431.731 956.235 431.43 956.305 431.157 956.403C430.888 956.502 430.672 956.644 430.509 956.83C430.35 957.011 430.271 957.254 430.271 957.557C430.271 957.977 430.426 958.295 430.737 958.511C431.047 958.723 431.443 958.83 431.924 958.83ZM437.948 960V951.273H439.59V952.659H439.681C439.84 952.189 440.121 951.82 440.522 951.551C440.928 951.278 441.386 951.142 441.897 951.142C442.003 951.142 442.128 951.146 442.272 951.153C442.42 951.161 442.535 951.17 442.619 951.182V952.807C442.551 952.788 442.429 952.767 442.255 952.744C442.081 952.718 441.907 952.705 441.732 952.705C441.331 952.705 440.973 952.79 440.659 952.96C440.348 953.127 440.102 953.36 439.92 953.659C439.738 953.955 439.647 954.292 439.647 954.67V960H437.948ZM447.277 960.176C446.432 960.176 445.705 959.985 445.095 959.602C444.489 959.216 444.023 958.684 443.697 958.006C443.371 957.328 443.208 956.551 443.208 955.676C443.208 954.79 443.375 954.008 443.708 953.33C444.042 952.648 444.511 952.116 445.118 951.733C445.724 951.35 446.438 951.159 447.26 951.159C447.922 951.159 448.513 951.282 449.032 951.528C449.551 951.771 449.97 952.112 450.288 952.551C450.61 952.991 450.801 953.504 450.862 954.091H449.208C449.118 953.682 448.909 953.33 448.583 953.034C448.261 952.739 447.83 952.591 447.288 952.591C446.814 952.591 446.4 952.716 446.044 952.966C445.691 953.212 445.417 953.564 445.22 954.023C445.023 954.477 444.924 955.015 444.924 955.636C444.924 956.273 445.021 956.822 445.214 957.284C445.407 957.746 445.68 958.104 446.032 958.358C446.388 958.612 446.807 958.739 447.288 958.739C447.61 958.739 447.902 958.68 448.163 958.562C448.428 958.441 448.65 958.269 448.828 958.045C449.01 957.822 449.136 957.553 449.208 957.239H450.862C450.801 957.803 450.618 958.307 450.311 958.75C450.004 959.193 449.593 959.542 449.078 959.795C448.566 960.049 447.966 960.176 447.277 960.176ZM454.201 954.818V960H452.503V948.364H454.179V952.693H454.287C454.491 952.223 454.804 951.85 455.224 951.574C455.645 951.297 456.194 951.159 456.872 951.159C457.47 951.159 457.993 951.282 458.44 951.528C458.891 951.775 459.239 952.142 459.486 952.631C459.736 953.116 459.861 953.722 459.861 954.449V960H458.162V954.653C458.162 954.013 457.997 953.517 457.667 953.165C457.338 952.809 456.88 952.631 456.292 952.631C455.891 952.631 455.531 952.716 455.213 952.886C454.898 953.057 454.65 953.307 454.469 953.636C454.29 953.962 454.201 954.356 454.201 954.818Z" fill="black" fill-opacity="0.8"/>
<rect x="806" y="394" width="176" height="176" rx="6" fill="white" stroke="#CCCCCC" stroke-width="4" stroke-miterlimit="0" stroke-linecap="round"/>
<path d="M878.597 488V476.364H885.813V477.875H880.353V481.42H885.296V482.926H880.353V488H878.597ZM890.695 488.176C889.877 488.176 889.163 487.989 888.553 487.614C887.943 487.239 887.47 486.714 887.133 486.04C886.796 485.366 886.627 484.578 886.627 483.676C886.627 482.771 886.796 481.979 887.133 481.301C887.47 480.623 887.943 480.097 888.553 479.722C889.163 479.347 889.877 479.159 890.695 479.159C891.513 479.159 892.227 479.347 892.837 479.722C893.447 480.097 893.921 480.623 894.258 481.301C894.595 481.979 894.763 482.771 894.763 483.676C894.763 484.578 894.595 485.366 894.258 486.04C893.921 486.714 893.447 487.239 892.837 487.614C892.227 487.989 891.513 488.176 890.695 488.176ZM890.701 486.75C891.231 486.75 891.671 486.61 892.019 486.33C892.368 486.049 892.625 485.676 892.792 485.21C892.962 484.744 893.048 484.231 893.048 483.67C893.048 483.114 892.962 482.602 892.792 482.136C892.625 481.667 892.368 481.29 892.019 481.006C891.671 480.722 891.231 480.58 890.701 480.58C890.167 480.58 889.724 480.722 889.371 481.006C889.023 481.29 888.763 481.667 888.593 482.136C888.426 482.602 888.343 483.114 888.343 483.67C888.343 484.231 888.426 484.744 888.593 485.21C888.763 485.676 889.023 486.049 889.371 486.33C889.724 486.61 890.167 486.75 890.701 486.75ZM898.183 482.818V488H896.484V479.273H898.114V480.693H898.222C898.423 480.231 898.738 479.86 899.166 479.58C899.597 479.299 900.141 479.159 900.796 479.159C901.391 479.159 901.912 479.284 902.359 479.534C902.806 479.78 903.152 480.148 903.399 480.636C903.645 481.125 903.768 481.729 903.768 482.449V488H902.069V482.653C902.069 482.021 901.904 481.527 901.575 481.17C901.245 480.811 900.792 480.631 900.217 480.631C899.823 480.631 899.472 480.716 899.166 480.886C898.863 481.057 898.622 481.307 898.444 481.636C898.27 481.962 898.183 482.356 898.183 482.818ZM909.944 479.273V480.636H905.177V479.273H909.944ZM906.455 477.182H908.154V485.438C908.154 485.767 908.204 486.015 908.302 486.182C908.401 486.345 908.527 486.456 908.683 486.517C908.842 486.574 909.014 486.602 909.2 486.602C909.336 486.602 909.455 486.593 909.558 486.574C909.66 486.555 909.74 486.54 909.796 486.528L910.103 487.932C910.005 487.97 909.865 488.008 909.683 488.045C909.501 488.087 909.274 488.11 909.001 488.114C908.554 488.121 908.137 488.042 907.751 487.875C907.365 487.708 907.052 487.451 906.813 487.102C906.575 486.754 906.455 486.316 906.455 485.79V477.182Z" fill="black" fill-opacity="0.8"/>
<rect x="1218" y="618" width="176" height="176" rx="6" fill="white" stroke="#CCCCCC" stroke-width="4" stroke-miterlimit="0" stroke-linecap="round"/>
<path d="M1273.44 712H1269.68V700.364H1273.56C1274.7 700.364 1275.68 700.597 1276.5 701.062C1277.32 701.525 1277.94 702.189 1278.38 703.057C1278.82 703.92 1279.04 704.956 1279.04 706.165C1279.04 707.377 1278.82 708.419 1278.37 709.29C1277.94 710.161 1277.3 710.831 1276.47 711.301C1275.63 711.767 1274.62 712 1273.44 712ZM1271.43 710.466H1273.35C1274.23 710.466 1274.97 710.299 1275.56 709.966C1276.14 709.629 1276.58 709.142 1276.87 708.506C1277.17 707.866 1277.31 707.085 1277.31 706.165C1277.31 705.252 1277.17 704.477 1276.87 703.841C1276.59 703.205 1276.16 702.722 1275.58 702.392C1275.01 702.062 1274.3 701.898 1273.45 701.898H1271.43V710.466ZM1284.59 712.176C1283.77 712.176 1283.05 711.989 1282.44 711.614C1281.83 711.239 1281.36 710.714 1281.02 710.04C1280.69 709.366 1280.52 708.578 1280.52 707.676C1280.52 706.771 1280.69 705.979 1281.02 705.301C1281.36 704.623 1281.83 704.097 1282.44 703.722C1283.05 703.347 1283.77 703.159 1284.59 703.159C1285.4 703.159 1286.12 703.347 1286.73 703.722C1287.34 704.097 1287.81 704.623 1288.15 705.301C1288.49 705.979 1288.65 706.771 1288.65 707.676C1288.65 708.578 1288.49 709.366 1288.15 710.04C1287.81 710.714 1287.34 711.239 1286.73 711.614C1286.12 711.989 1285.4 712.176 1284.59 712.176ZM1284.59 710.75C1285.12 710.75 1285.56 710.61 1285.91 710.33C1286.26 710.049 1286.52 709.676 1286.68 709.21C1286.85 708.744 1286.94 708.231 1286.94 707.67C1286.94 707.114 1286.85 706.602 1286.68 706.136C1286.52 705.667 1286.26 705.29 1285.91 705.006C1285.56 704.722 1285.12 704.58 1284.59 704.58C1284.06 704.58 1283.61 704.722 1283.26 705.006C1282.91 705.29 1282.65 705.667 1282.48 706.136C1282.32 706.602 1282.23 707.114 1282.23 707.67C1282.23 708.231 1282.32 708.744 1282.48 709.21C1282.65 709.676 1282.91 710.049 1283.26 710.33C1283.61 710.61 1284.06 710.75 1284.59 710.75ZM1292 712L1289.43 703.273H1291.19L1292.9 709.682H1292.98L1294.7 703.273H1296.46L1298.16 709.653H1298.25L1299.94 703.273H1301.7L1299.14 712H1297.4L1295.63 705.699H1295.5L1293.73 712H1292ZM1304.84 706.818V712H1303.14V703.273H1304.77V704.693H1304.87C1305.08 704.231 1305.39 703.86 1305.82 703.58C1306.25 703.299 1306.79 703.159 1307.45 703.159C1308.04 703.159 1308.56 703.284 1309.01 703.534C1309.46 703.78 1309.8 704.148 1310.05 704.636C1310.3 705.125 1310.42 705.729 1310.42 706.449V712H1308.72V706.653C1308.72 706.021 1308.56 705.527 1308.23 705.17C1307.9 704.811 1307.45 704.631 1306.87 704.631C1306.48 704.631 1306.12 704.716 1305.82 704.886C1305.52 705.057 1305.27 705.307 1305.1 705.636C1304.92 705.962 1304.84 706.356 1304.84 706.818ZM1314.22 700.364V712H1312.52V700.364H1314.22ZM1320.01 712.176C1319.19 712.176 1318.48 711.989 1317.87 711.614C1317.26 711.239 1316.78 710.714 1316.44 710.04C1316.11 709.366 1315.94 708.578 1315.94 707.676C1315.94 706.771 1316.11 705.979 1316.44 705.301C1316.78 704.623 1317.26 704.097 1317.87 703.722C1318.48 703.347 1319.19 703.159 1320.01 703.159C1320.83 703.159 1321.54 703.347 1322.15 703.722C1322.76 704.097 1323.23 704.623 1323.57 705.301C1323.91 705.979 1324.08 706.771 1324.08 707.676C1324.08 708.578 1323.91 709.366 1323.57 710.04C1323.23 710.714 1322.76 711.239 1322.15 711.614C1321.54 711.989 1320.83 712.176 1320.01 712.176ZM1320.01 710.75C1320.54 710.75 1320.98 710.61 1321.33 710.33C1321.68 710.049 1321.94 709.676 1322.1 709.21C1322.27 708.744 1322.36 708.231 1322.36 707.67C1322.36 707.114 1322.27 706.602 1322.1 706.136C1321.94 705.667 1321.68 705.29 1321.33 705.006C1320.98 704.722 1320.54 704.58 1320.01 704.58C1319.48 704.58 1319.04 704.722 1318.68 705.006C1318.33 705.29 1318.08 705.667 1317.91 706.136C1317.74 706.602 1317.66 707.114 1317.66 707.67C1317.66 708.231 1317.74 708.744 1317.91 709.21C1318.08 709.676 1318.33 710.049 1318.68 710.33C1319.04 710.61 1319.48 710.75 1320.01 710.75ZM1328.34 712.193C1327.78 712.193 1327.28 712.091 1326.84 711.886C1326.39 711.678 1326.03 711.377 1325.77 710.983C1325.52 710.589 1325.39 710.106 1325.39 709.534C1325.39 709.042 1325.48 708.636 1325.67 708.318C1325.86 708 1326.12 707.748 1326.44 707.562C1326.76 707.377 1327.12 707.237 1327.52 707.142C1327.92 707.047 1328.32 706.975 1328.73 706.926C1329.26 706.866 1329.68 706.816 1330.01 706.778C1330.33 706.737 1330.57 706.67 1330.72 706.58C1330.86 706.489 1330.94 706.341 1330.94 706.136V706.097C1330.94 705.6 1330.8 705.216 1330.52 704.943C1330.24 704.67 1329.83 704.534 1329.28 704.534C1328.71 704.534 1328.26 704.661 1327.93 704.915C1327.6 705.165 1327.38 705.443 1327.25 705.75L1325.65 705.386C1325.84 704.856 1326.12 704.428 1326.48 704.102C1326.85 703.773 1327.27 703.534 1327.75 703.386C1328.23 703.235 1328.73 703.159 1329.26 703.159C1329.6 703.159 1329.97 703.201 1330.36 703.284C1330.76 703.364 1331.13 703.511 1331.47 703.727C1331.81 703.943 1332.09 704.252 1332.31 704.653C1332.53 705.051 1332.64 705.568 1332.64 706.205V712H1330.98V710.807H1330.92C1330.81 711.027 1330.64 711.242 1330.42 711.455C1330.2 711.667 1329.92 711.843 1329.57 711.983C1329.23 712.123 1328.82 712.193 1328.34 712.193ZM1328.7 710.83C1329.17 710.83 1329.58 710.737 1329.91 710.551C1330.25 710.366 1330.5 710.123 1330.68 709.824C1330.85 709.521 1330.94 709.197 1330.94 708.852V707.727C1330.88 707.788 1330.77 707.845 1330.59 707.898C1330.42 707.947 1330.23 707.991 1330.01 708.028C1329.79 708.062 1329.57 708.095 1329.36 708.125C1329.16 708.152 1328.98 708.174 1328.84 708.193C1328.51 708.235 1328.21 708.305 1327.94 708.403C1327.67 708.502 1327.45 708.644 1327.29 708.83C1327.13 709.011 1327.05 709.254 1327.05 709.557C1327.05 709.977 1327.21 710.295 1327.52 710.511C1327.83 710.723 1328.22 710.83 1328.7 710.83ZM1338 712.17C1337.29 712.17 1336.66 711.991 1336.11 711.631C1335.56 711.267 1335.13 710.75 1334.81 710.08C1334.5 709.405 1334.35 708.597 1334.35 707.653C1334.35 706.71 1334.51 705.903 1334.82 705.233C1335.14 704.562 1335.57 704.049 1336.13 703.693C1336.68 703.337 1337.31 703.159 1338.01 703.159C1338.55 703.159 1338.98 703.25 1339.31 703.432C1339.65 703.61 1339.91 703.818 1340.09 704.057C1340.27 704.295 1340.42 704.506 1340.52 704.688H1340.62V700.364H1342.32V712H1340.66V710.642H1340.52C1340.42 710.828 1340.27 711.04 1340.08 711.278C1339.89 711.517 1339.63 711.725 1339.29 711.903C1338.96 712.081 1338.53 712.17 1338 712.17ZM1338.37 710.722C1338.86 710.722 1339.27 710.593 1339.61 710.335C1339.95 710.074 1340.21 709.712 1340.38 709.25C1340.56 708.788 1340.65 708.25 1340.65 707.636C1340.65 707.03 1340.56 706.5 1340.39 706.045C1340.21 705.591 1339.96 705.237 1339.62 704.983C1339.28 704.729 1338.87 704.602 1338.37 704.602C1337.86 704.602 1337.43 704.735 1337.09 705C1336.75 705.265 1336.49 705.627 1336.32 706.085C1336.15 706.544 1336.06 707.061 1336.06 707.636C1336.06 708.22 1336.15 708.744 1336.33 709.21C1336.5 709.676 1336.76 710.045 1337.1 710.318C1337.44 710.587 1337.87 710.722 1338.37 710.722Z" fill="black" fill-opacity="0.8"/>
<rect x="338" y="1250" width="176" height="176" rx="6" fill="white" stroke="#CCCCCC" stroke-width="4" stroke-miterlimit="0" stroke-linecap="round"/>
<path d="M421.192 1332.36V1344H419.437V1332.36H421.192ZM427.34 1344H423.573V1332.36H427.46C428.6 1332.36 429.579 1332.6 430.397 1333.06C431.215 1333.52 431.842 1334.19 432.278 1335.06C432.717 1335.92 432.937 1336.96 432.937 1338.16C432.937 1339.38 432.715 1340.42 432.272 1341.29C431.833 1342.16 431.196 1342.83 430.363 1343.3C429.53 1343.77 428.522 1344 427.34 1344ZM425.329 1342.47H427.244C428.13 1342.47 428.867 1342.3 429.454 1341.97C430.041 1341.63 430.48 1341.14 430.772 1340.51C431.064 1339.87 431.21 1339.09 431.21 1338.16C431.21 1337.25 431.064 1336.48 430.772 1335.84C430.484 1335.2 430.054 1334.72 429.482 1334.39C428.91 1334.06 428.2 1333.9 427.352 1333.9H425.329V1342.47Z" fill="black" fill-opacity="0.8"/>
<path d="M182 704.5C181.172 704.5 180.5 705.172 180.5 706C180.5 706.828 181.172 707.5 182 707.5V704.5ZM335.061 91.0607C335.646 90.4749 335.646 89.5251 335.061 88.9393L325.515 79.3934C324.929 78.8076 323.979 78.8076 323.393 79.3934C322.808 79.9792 322.808 80.9289 323.393 81.5147L331.879 90L323.393 98.4853C322.808 99.0711 322.808 100.021 323.393 100.607C323.979 101.192 324.929 101.192 325.515 100.607L335.061 91.0607ZM182 707.5H234V704.5H182V707.5ZM259.5 682V114H256.5V682H259.5ZM282 91.5H334V88.5H282V91.5ZM259.5 114C259.5 101.574 269.574 91.5 282 91.5V88.5C267.917 88.5 256.5 99.9167 256.5 114H259.5ZM234 707.5C248.083 707.5 259.5 696.083 259.5 682H256.5C256.5 694.426 246.426 704.5 234 704.5V707.5Z" fill="#B3B3B3"/>
<path d="M182 704.5C181.172 704.5 180.5 705.172 180.5 706C180.5 706.828 181.172 707.5 182 707.5V704.5ZM335.061 483.061C335.646 482.475 335.646 481.525 335.061 480.939L325.515 471.393C324.929 470.808 323.979 470.808 323.393 471.393C322.808 471.979 322.808 472.929 323.393 473.515L331.879 482L323.393 490.485C322.808 491.071 322.808 492.021 323.393 492.607C323.979 493.192 324.929 493.192 325.515 492.607L335.061 483.061ZM182 707.5H234V704.5H182V707.5ZM259.5 682V506H256.5V682H259.5ZM282 483.5H334V480.5H282V483.5ZM259.5 506C259.5 493.574 269.574 483.5 282 483.5V480.5C267.917 480.5 256.5 491.917 256.5 506H259.5ZM234 707.5C248.083 707.5 259.5 696.083 259.5 682H256.5C256.5 694.426 246.426 704.5 234 704.5V707.5Z" fill="#B3B3B3"/>
<path d="M182 704.5C181.172 704.5 180.5 705.172 180.5 706C180.5 706.828 181.172 707.5 182 707.5V704.5ZM335.061 955.061C335.646 954.475 335.646 953.525 335.061 952.939L325.515 943.393C324.929 942.808 323.979 942.808 323.393 943.393C322.808 943.979 322.808 944.929 323.393 945.515L331.879 954L323.393 962.485C322.808 963.071 322.808 964.021 323.393 964.607C323.979 965.192 324.929 965.192 325.515 964.607L335.061 955.061ZM182 707.5H234V704.5H182V707.5ZM256.5 730V930H259.5V730H256.5ZM282 955.5H334V952.5H282V955.5ZM256.5 930C256.5 944.083 267.917 955.5 282 955.5V952.5C269.574 952.5 259.5 942.426 259.5 930H256.5ZM234 707.5C246.426 707.5 256.5 717.574 256.5 730H259.5C259.5 715.917 248.083 704.5 234 704.5V707.5Z" fill="#B3B3B3"/>
<path d="M182 704.5C181.172 704.5 180.5 705.172 180.5 706C180.5 706.828 181.172 707.5 182 707.5V704.5ZM335.061 1339.06C335.646 1338.47 335.646 1337.53 335.061 1336.94L325.515 1327.39C324.929 1326.81 323.979 1326.81 323.393 1327.39C322.808 1327.98 322.808 1328.93 323.393 1329.51L331.879 1338L323.393 1346.49C322.808 1347.07 322.808 1348.02 323.393 1348.61C323.979 1349.19 324.929 1349.19 325.515 1348.61L335.061 1339.06ZM182 707.5H234V704.5H182V707.5ZM256.5 730V1314H259.5V730H256.5ZM282 1339.5H334V1336.5H282V1339.5ZM256.5 1314C256.5 1328.08 267.917 1339.5 282 1339.5V1336.5C269.574 1336.5 259.5 1326.43 259.5 1314H256.5ZM234 707.5C246.426 707.5 256.5 717.574 256.5 730H259.5C259.5 715.917 248.083 704.5 234 704.5V707.5Z" fill="#B3B3B3"/>
<path d="M518 480.5C517.172 480.5 516.5 481.172 516.5 482C516.5 482.828 517.172 483.5 518 483.5V480.5ZM803.061 483.061C803.646 482.475 803.646 481.525 803.061 480.939L793.515 471.393C792.929 470.808 791.979 470.808 791.393 471.393C790.808 471.979 790.808 472.929 791.393 473.515L799.879 482L791.393 490.485C790.808 491.071 790.808 492.021 791.393 492.607C791.979 493.192 792.929 493.192 793.515 492.607L803.061 483.061ZM518 483.5H802V480.5H518V483.5Z" fill="#B3B3B3"/>
<path d="M518 952.5C517.172 952.5 516.5 953.172 516.5 954C516.5 954.828 517.172 955.5 518 955.5V952.5ZM427.061 572.939C426.475 572.354 425.525 572.354 424.939 572.939L415.393 582.485C414.808 583.071 414.808 584.021 415.393 584.607C415.979 585.192 416.929 585.192 417.515 584.607L426 576.121L434.485 584.607C435.071 585.192 436.021 585.192 436.607 584.607C437.192 584.021 437.192 583.071 436.607 582.485L427.061 572.939ZM518 955.5H522V952.5H518V955.5ZM547.5 930V742H544.5V930H547.5ZM522 716.5H450V719.5H522V716.5ZM427.5 694V574H424.5V694H427.5ZM450 716.5C437.574 716.5 427.5 706.426 427.5 694H424.5C424.5 708.083 435.917 719.5 450 719.5V716.5ZM547.5 742C547.5 727.917 536.083 716.5 522 716.5V719.5C534.426 719.5 544.5 729.574 544.5 742H547.5ZM522 955.5C536.083 955.5 547.5 944.083 547.5 930H544.5C544.5 942.426 534.426 952.5 522 952.5V955.5Z" fill="#B3B3B3"/>
<path d="M518 952.5C517.172 952.5 516.5 953.172 516.5 954C516.5 954.828 517.172 955.5 518 955.5V952.5ZM803.061 483.061C803.646 482.475 803.646 481.525 803.061 480.939L793.515 471.393C792.929 470.808 791.979 470.808 791.393 471.393C790.808 471.979 790.808 472.929 791.393 473.515L799.879 482L791.393 490.485C790.808 491.071 790.808 492.021 791.393 492.607C791.979 493.192 792.929 493.192 793.515 492.607L803.061 483.061ZM518 955.5H636V952.5H518V955.5ZM661.5 930V506H658.5V930H661.5ZM684 483.5H802V480.5H684V483.5ZM661.5 506C661.5 493.574 671.574 483.5 684 483.5V480.5C669.917 480.5 658.5 491.917 658.5 506H661.5ZM636 955.5C650.083 955.5 661.5 944.083 661.5 930H658.5C658.5 942.426 648.426 952.5 636 952.5V955.5Z" fill="#B3B3B3"/>
<path d="M986 480.5C985.172 480.5 984.5 481.172 984.5 482C984.5 482.828 985.172 483.5 986 483.5V480.5ZM1307.06 796.939C1306.47 796.354 1305.53 796.354 1304.94 796.939L1295.39 806.485C1294.81 807.071 1294.81 808.021 1295.39 808.607C1295.98 809.192 1296.93 809.192 1297.51 808.607L1306 800.121L1314.49 808.607C1315.07 809.192 1316.02 809.192 1316.61 808.607C1317.19 808.021 1317.19 807.071 1316.61 806.485L1307.06 796.939ZM986 483.5H1076V480.5H986V483.5ZM1098.5 506V802H1101.5V506H1098.5ZM1124 827.5H1282V824.5H1124V827.5ZM1307.5 802V798H1304.5V802H1307.5ZM1282 827.5C1296.08 827.5 1307.5 816.083 1307.5 802H1304.5C1304.5 814.426 1294.43 824.5 1282 824.5V827.5ZM1098.5 802C1098.5 816.083 1109.92 827.5 1124 827.5V824.5C1111.57 824.5 1101.5 814.426 1101.5 802H1098.5ZM1076 483.5C1088.43 483.5 1098.5 493.574 1098.5 506H1101.5C1101.5 491.917 1090.08 480.5 1076 480.5V483.5Z" fill="#B3B3B3"/>
</svg>
