<svg width="75" height="77" viewBox="0 0 75 77" fill="none" xmlns="http://www.w3.org/2000/svg">
<path d="M72.342 29.442C72.342 28.0613 71.2227 26.942 69.842 26.942H49.92V5C49.92 3.61929 48.8007 2.5 47.42 2.5H27.422C26.0413 2.5 24.922 3.61929 24.922 5V26.942H5C3.61929 26.942 2.5 28.0613 2.5 29.442V47.218C2.5 48.5987 3.61929 49.718 5 49.718H24.922V71.66C24.922 73.0407 26.0413 74.16 27.422 74.16H47.42C48.8007 74.16 49.92 73.0407 49.92 71.66V49.718H69.842C71.2227 49.718 72.342 48.5987 72.342 47.218V29.442Z" fill="#59BEA4" stroke="black" stroke-width="5" stroke-linecap="round" stroke-linejoin="round"/>
</svg>
