<svg width="176" height="174" viewBox="0 0 176 174" fill="none" xmlns="http://www.w3.org/2000/svg">
<path d="M25.2373 115.02C25.3024 115.005 25.3792 115.002 25.4324 114.97C29.0863 112.761 32.7815 110.621 36.3763 108.318C39.7582 106.154 42.7055 103.418 45.7445 100.81C48.1656 98.7338 50.5956 96.6667 53.3744 95.0591C56.0675 93.4985 58.9409 92.6063 62.0922 92.7447C63.8896 92.8242 65.613 93.207 67.2182 94.0167C68.72 94.7734 70.1804 95.6067 71.7146 96.4341C71.3037 97.3469 70.9076 98.2244 70.4878 99.1607C70.1478 98.9634 69.8315 98.7868 69.5211 98.6012C67.6912 97.4971 65.7815 96.5843 63.6679 96.1485C60.7471 95.5478 58.0274 96.1338 55.4615 97.5619C52.6886 99.1048 50.2674 101.125 47.8552 103.159C45.1059 105.477 42.3389 107.77 39.5512 110.043C38.8447 110.621 38.0436 111.08 37.2277 111.633C37.8307 111.984 38.3894 112.314 38.9511 112.638C52.3308 120.325 65.7106 128.013 79.0844 135.713C79.4865 135.946 79.7436 135.928 80.1132 135.666C83.6724 133.14 86.6611 130.048 89.2892 126.585C91.0215 124.303 92.7893 122.045 94.6222 119.843C95.8194 118.403 97.3064 117.272 99.0624 116.542C101.359 115.585 103.677 115.735 105.986 116.489C106.873 116.777 107.736 117.143 108.62 117.478C109.17 116.433 109.693 115.376 110.272 114.345C111.688 111.819 113.326 109.455 115.487 107.488C118.136 105.079 121.272 103.666 124.799 103.165C127.202 102.824 129.629 102.626 132.048 102.411C135.134 102.135 138.17 101.64 141.064 100.48C141.227 100.415 141.386 100.338 141.614 100.238C141.425 100.118 141.283 100.026 141.138 99.9439C127.427 92.0528 113.713 84.1616 100.005 76.2587C99.5797 76.0113 99.2368 75.9613 98.7874 76.191C98.2258 76.4766 97.6197 76.6709 96.925 76.9477C96.925 75.8082 96.9191 74.7747 96.9369 73.7441C96.9369 73.6469 97.0788 73.5144 97.1852 73.4644C97.9183 73.111 98.6515 72.7548 99.4053 72.4485C99.5856 72.3749 99.8842 72.4191 100.065 72.5251C113.051 79.9716 126.032 87.4329 139.012 94.8883C143.438 97.4294 147.86 99.9704 152.286 102.514C152.463 102.617 152.64 102.726 152.871 102.862C150.515 104.216 148.23 105.535 145.942 106.849C136.662 112.181 127.383 117.508 118.115 122.855C117.861 123.002 117.624 123.311 117.533 123.597C116.788 125.955 115.845 128.211 114.248 130.139C112.528 132.218 110.364 133.52 107.621 133.746C106.595 133.832 105.601 133.679 104.661 133.249C103.913 132.904 103.337 132.368 102.959 131.564C102.775 131.668 102.61 131.756 102.45 131.85C94.5985 136.358 86.7469 140.866 78.9041 145.389C78.5316 145.604 78.2744 145.598 77.9049 145.386C60.4456 135.336 42.9834 125.299 25.5182 115.261C25.4295 115.211 25.329 115.179 25.2344 115.137V115.031L25.2373 115.02Z" fill="black" stroke="#1D1D1B" stroke-miterlimit="10"/>
<path d="M88.5417 28.4641C89.6443 28.6967 90.7736 28.841 91.8437 29.1767C95.3941 30.2838 98.6607 32.0004 101.782 33.9909C105.738 36.5143 109.445 39.3851 113.075 42.3502C113.22 42.468 113.365 42.6859 113.365 42.8566C113.38 46.6049 113.377 50.3532 113.371 54.1015C113.371 54.1339 113.35 54.1634 113.323 54.2458C113.182 54.1751 113.046 54.1163 112.915 54.0426C111.538 53.2476 110.175 52.4291 108.78 51.6606C108.31 51.4015 108.121 51.0864 108.067 50.5564C107.849 48.3746 107.305 46.2722 106.181 44.3701C105.096 42.5298 103.674 40.9869 101.75 39.9917C100.171 39.1731 98.5513 38.9464 96.9698 39.9887C95.8375 40.7337 95.1488 41.8467 94.8295 43.1157C94.5043 44.4084 94.2471 45.7452 94.191 47.0731C94.0875 49.5258 94.1614 51.9874 94.1437 54.4431C94.1407 54.7788 94.2737 54.9407 94.5457 55.0968C98.3592 57.2904 102.164 59.5017 105.983 61.6865C106.37 61.9073 106.509 62.1458 106.504 62.5963C106.474 64.4307 106.492 66.2651 106.492 68.2143C102.356 65.8234 98.2971 63.4796 94.1525 61.0858V61.7306C94.1525 73.9472 94.1525 86.1638 94.1407 98.3803C94.1407 98.8308 94.2796 99.0605 94.6669 99.2813C97.5108 100.895 100.337 102.538 103.178 104.157C103.491 104.337 103.624 104.522 103.618 104.894C103.598 106.766 103.609 108.639 103.609 110.576C103.447 110.503 103.32 110.461 103.207 110.397C92.5059 104.225 81.8075 98.0506 71.1119 91.8672C70.9523 91.773 70.7424 91.5786 70.7395 91.4285C70.7128 89.4704 70.7217 87.5094 70.7217 85.4306C73.066 86.788 75.3363 88.1012 77.6599 89.4468C77.6806 89.2761 77.7072 89.1495 77.7072 89.0229C77.7072 76.7003 77.7072 64.3777 77.7161 52.0551C77.7161 51.7254 77.6037 51.5516 77.3288 51.3956C75.1501 50.1471 72.9773 48.8928 70.8163 47.6208C70.6389 47.5177 70.4379 47.2674 70.435 47.0819C70.4084 45.2093 70.4202 43.3336 70.4231 41.461C70.4231 41.4109 70.4438 41.3609 70.4764 41.2254C72.8768 42.6122 75.2476 43.9814 77.7072 45.4036C77.7072 45.1209 77.7072 44.9354 77.7072 44.7499C77.7072 42.5592 77.6776 40.3656 77.719 38.172C77.7604 35.893 78.3457 33.7671 79.7618 31.9356C81.2487 30.01 83.2353 28.9264 85.6357 28.5701C85.7924 28.5495 85.9432 28.5024 86.0969 28.4671H88.5387" fill="#1D1D1B"/>
<path d="M88.5417 28.4641C89.6443 28.6967 90.7736 28.841 91.8437 29.1767C95.3941 30.2838 98.6607 32.0004 101.782 33.9909C105.738 36.5143 109.445 39.3851 113.075 42.3502C113.22 42.468 113.365 42.6859 113.365 42.8566C113.38 46.6049 113.377 50.3532 113.371 54.1015C113.371 54.1339 113.35 54.1634 113.323 54.2458C113.182 54.1751 113.046 54.1163 112.915 54.0426C111.538 53.2476 110.175 52.4291 108.78 51.6606C108.31 51.4015 108.121 51.0864 108.067 50.5564C107.849 48.3746 107.305 46.2722 106.181 44.3701C105.096 42.5298 103.674 40.9869 101.75 39.9917C100.171 39.1731 98.5513 38.9464 96.9698 39.9887C95.8375 40.7337 95.1488 41.8467 94.8295 43.1157C94.5043 44.4084 94.2471 45.7452 94.191 47.0731C94.0875 49.5258 94.1614 51.9874 94.1436 54.4431C94.1407 54.7788 94.2737 54.9407 94.5457 55.0968C98.3592 57.2904 102.164 59.5017 105.983 61.6865C106.37 61.9073 106.509 62.1458 106.504 62.5963C106.474 64.4307 106.492 66.2651 106.492 68.2143C102.356 65.8234 98.2971 63.4796 94.1525 61.0858V61.7306C94.1525 73.9472 94.1525 86.1638 94.1407 98.3803C94.1407 98.8308 94.2796 99.0605 94.6669 99.2814C97.5108 100.895 100.337 102.538 103.178 104.157C103.491 104.337 103.624 104.522 103.618 104.893C103.598 106.766 103.609 108.639 103.609 110.576C103.447 110.503 103.32 110.461 103.207 110.397C92.5059 104.225 81.8075 98.0506 71.1119 91.8672C70.9523 91.773 70.7424 91.5786 70.7395 91.4285C70.7128 89.4704 70.7217 87.5094 70.7217 85.4306C73.066 86.788 75.3363 88.1012 77.6599 89.4469C77.6806 89.2761 77.7072 89.1495 77.7072 89.0228C77.7072 76.7003 77.7072 64.3777 77.7161 52.0551C77.7161 51.7254 77.6037 51.5516 77.3288 51.3956C75.1501 50.1471 72.9773 48.8928 70.8163 47.6208C70.6389 47.5177 70.4379 47.2674 70.435 47.0819C70.4084 45.2093 70.4202 43.3336 70.4231 41.461C70.4231 41.4109 70.4438 41.3609 70.4764 41.2254C72.8768 42.6122 75.2476 43.9814 77.7072 45.4036C77.7072 45.1209 77.7072 44.9354 77.7072 44.7499C77.7072 42.5592 77.6776 40.3656 77.719 38.172C77.7604 35.893 78.3457 33.7671 79.7618 31.9356C81.2487 30.01 83.2353 28.9264 85.6357 28.5701C85.7924 28.5495 85.9432 28.5024 86.0969 28.4671H88.5387L88.5417 28.4641Z" stroke="black" stroke-linecap="round" stroke-linejoin="round"/>
</svg>
