<svg width="82" height="82" viewBox="0 0 82 82" fill="none" xmlns="http://www.w3.org/2000/svg">
<circle cx="41" cy="41" r="38.5" fill="#59BEA4" stroke="black" stroke-width="5"/>
<path d="M32.615 42.2653L23.6027 26.9394C23.0947 26.0757 21.9697 25.7797 21.0899 26.2784C20.3136 26.7185 19.9734 27.6439 20.2845 28.4693L26.6098 45.2524C26.7028 45.4992 26.751 45.7601 26.7522 46.0231L26.8175 60.2803C26.8233 61.519 27.8475 62.5201 29.1092 62.5201H34.7894C36.2522 62.5201 37.3406 61.1929 37.0283 59.7899L33.6254 44.5005L32.615 42.2653Z" stroke="black" stroke-width="3" stroke-linecap="round" stroke-linejoin="round"/>
<path d="M26.75 45.625L33.625 44.5" stroke="black" stroke-width="3" stroke-linecap="round" stroke-linejoin="round"/>
<path d="M48.0214 41.9451L56.8342 26.9585C57.3484 26.084 58.4873 25.7843 59.3779 26.2892C60.1481 26.7258 60.4963 27.636 60.2095 28.4625L54.3599 45.3118C54.2878 45.5196 54.247 45.7365 54.2389 45.9559L53.7047 60.354C53.6598 61.5639 52.6478 62.5221 51.4145 62.5221H45.7264C44.2358 62.5221 43.1418 61.1469 43.503 59.7269L47.3761 44.5001L47.7592 42.6271C47.8082 42.3874 47.8968 42.157 48.0214 41.9451Z" stroke="black" stroke-width="3" stroke-linecap="round" stroke-linejoin="round"/>
<path d="M47.375 44.5L54.25 45.625" stroke="black" stroke-width="3" stroke-linecap="round" stroke-linejoin="round"/>
<path d="M30.1875 20.875L34.1979 25.375" stroke="black" stroke-width="3" stroke-linecap="round" stroke-linejoin="round"/>
<path d="M39.3555 17.5L40.5013 24.25" stroke="black" stroke-width="3" stroke-linecap="round" stroke-linejoin="round"/>
<path d="M50.8125 19.75L47.375 24.25" stroke="black" stroke-width="3" stroke-linecap="round" stroke-linejoin="round"/>
</svg>
