<svg width="82" height="82" viewBox="0 0 82 82" fill="none" xmlns="http://www.w3.org/2000/svg">
<circle cx="41" cy="41" r="38.5" fill="#F5B748" stroke="black" stroke-width="5"/>
<path d="M21.1013 37.0969C21.0018 35.8796 21.9037 34.833 23.0522 34.833H26.7912C27.8728 34.833 28.7495 35.7657 28.7495 36.9163V56.708C28.7495 57.8586 27.8728 58.7913 26.7912 58.7913H24.67C23.6542 58.7913 22.807 57.9651 22.719 56.8885L21.1013 37.0969Z" stroke="black" stroke-width="4" stroke-linecap="round" stroke-linejoin="round"/>
<path d="M34.625 36.2648C34.625 35.3943 35.1336 34.6151 35.8737 34.2439C37.4879 33.4345 40.2385 31.8057 41.4792 29.6044C43.0782 26.7673 43.3798 21.6413 43.4289 20.4672C43.4357 20.3028 43.4313 20.1382 43.4526 19.9753C43.7176 17.9418 47.4073 20.3173 48.8229 22.829C49.5912 24.1921 49.6897 25.983 49.6089 27.3812C49.5224 28.8773 49.1101 30.3225 48.7056 31.7583L47.8437 34.8169H58.4745C59.7731 34.8169 60.7121 36.137 60.3591 37.4664L55.1006 57.2743C54.8624 58.1717 54.0926 58.7913 53.216 58.7913H36.5833C35.5017 58.7913 34.625 57.8586 34.625 56.708V36.2648Z" stroke="black" stroke-width="4" stroke-linecap="round" stroke-linejoin="round"/>
</svg>
