<svg width="167" height="167" viewBox="0 0 167 167" fill="none" xmlns="http://www.w3.org/2000/svg">
<g clip-path="url(#clip0_219_35994)">
<path d="M142.065 93.7797L100.48 69.7429C99.0371 68.9089 99.0378 66.8258 100.481 65.9928C101.151 65.6063 101.976 65.6062 102.646 65.9927L160.579 99.4212C163.583 101.155 163.583 105.49 160.579 107.224L123.331 128.72C121.954 129.515 120.964 130.821 120.43 132.319C118.99 136.359 116.739 140.285 112.992 142.449C111.257 143.45 109.406 143.959 107.71 144.018C104.035 144.146 99.0834 142.726 95.8984 144.564L72.766 157.916C70.8702 159.01 68.5346 159.01 66.6389 157.915L9.03436 124.655C4.98459 122.316 4.9411 116.486 8.95554 114.088L10.565 113.126C19.9549 107.705 26.6252 100.181 33.7544 95.0851C37.3189 92.5371 41.0819 90.5928 45.349 90.116C48.147 89.8033 51.1539 90.037 54.2577 91.3247C55.8931 92.0032 57.6614 93.0705 59.3756 94.048C60.2409 94.5414 60.6037 95.6128 60.1911 96.5194C59.7192 97.5563 58.4467 97.9656 57.4698 97.3795L57.3018 97.2787C52.7119 94.6287 49.0781 93.9126 45.7967 94.2793C42.5949 94.6371 39.6064 96.1224 36.4404 98.3531C32.0047 101.425 28.0896 105.18 23.9829 108.686C20.4362 111.714 20.6152 117.728 24.6539 120.059L68.04 145.106C70.0236 146.251 72.505 146.222 74.2818 144.777C76.2633 143.165 78.0825 141.367 79.9092 139.539C83.4817 135.546 86.2692 131.301 89.176 127.72C91.7123 124.596 94.4626 121.9 98.1742 120.871C99.8043 120.419 101.56 120.355 103.451 120.674C106.823 121.242 110.463 120.097 112.216 117.161C114.377 113.541 116.622 110.82 118.991 108.829C122.794 105.631 126.865 104.28 130.899 103.636C134.204 103.108 137.471 102.986 140.807 102.661C145.819 102.173 146.425 96.2996 142.065 93.7797Z" fill="black"/>
<path d="M79.9403 7.006C79.588 7.01829 79.2419 7.05307 78.8808 7.09429C73.1367 7.75018 68.2858 12.2816 68.2858 20.1173V23.785C68.2858 26.0965 65.7818 27.5397 63.7818 26.3808L63.3427 26.1264C61.3427 24.9675 58.8386 26.4106 58.8386 28.7221V29.8663C58.8386 30.9364 59.4086 31.9255 60.3346 32.462L66.7899 36.2025C67.7158 36.739 68.2858 37.7281 68.2858 38.7982V80.9933C68.2858 83.3058 65.7609 84.7379 63.7609 83.5769V83.5769C61.7609 82.4159 59.2359 83.848 59.2359 86.1605V87.2973C59.2359 88.3688 59.8075 89.3591 60.7354 89.895L97.3802 111.063C99.3802 112.218 101.881 110.774 101.881 108.465V107.318C101.881 106.245 101.307 105.254 100.377 104.718L91.1118 99.3856C90.1816 98.8502 89.6082 97.8587 89.6082 96.7855V54.5432C89.6082 52.2326 92.1105 50.7894 94.1105 51.9464L101.131 56.0078C103.131 57.1649 105.633 55.7216 105.633 53.4111V52.2641C105.633 51.1932 105.062 50.2035 104.135 49.6673L91.106 42.1296C90.1791 41.5934 89.6082 40.6037 89.6082 39.5328V32.125C89.6082 18.6259 98.9287 18.0774 105.059 27.3131C106.353 29.5067 107.208 32.0913 107.623 35.0778C107.758 36.046 108.299 36.9205 109.144 37.412L110.042 37.9342C112.042 39.0976 114.551 37.6548 114.551 35.3411V26.7439C114.551 25.8465 114.15 24.9957 113.453 24.4303C107.458 19.5655 100.223 14.2114 95.0382 11.553C90.2212 9.08304 85.8798 7.03736 80.9998 7.006C80.6512 7.00374 80.2927 6.99371 79.9403 7.006Z" fill="black"/>
</g>
<defs>
<clipPath id="clip0_219_35994">
<rect width="167" height="167" fill="white"/>
</clipPath>
</defs>
</svg>
