<svg width="43" height="40" viewBox="0 0 43 40" fill="none" xmlns="http://www.w3.org/2000/svg">
<g clip-path="url(#clip0_123_6264)">
<path d="M20.6948 0.00157899C20.6029 0.00481325 20.5128 0.0139658 20.4187 0.0248136C18.9219 0.197415 17.6578 1.38991 17.6578 3.45192V5.787L15.1961 4.34646V6.47242L17.6578 7.91297V20.843L15.2996 19.4606V21.5865L26.412 28.069V25.943L23.214 24.0843V11.1426L27.3898 13.5822V11.4563L23.214 9.01662V6.61183C23.214 3.05945 25.6427 2.9151 27.2402 5.34554C27.6345 6.02047 27.8723 6.83602 27.9535 7.7968L29.7135 8.83074V4.82276C28.1006 3.4837 26.0635 1.94101 24.6289 1.19816C23.3737 0.548168 22.2425 0.00983044 20.9708 0.00157899C20.88 0.00098418 20.7866 -0.00165527 20.6948 0.00157899ZM25.0776 14.9298C24.8056 15.0661 24.4343 15.2689 24.1458 15.3597V16.5098C24.4086 16.4414 24.7522 16.2764 24.9856 16.1729L39.2154 24.4793C37.2198 25.3506 35.4508 25.1625 33.6362 25.4551C32.5997 25.6223 31.5536 25.973 30.5762 26.8027C29.6913 27.554 28.8734 28.7058 28.0915 30.3925C26.9985 29.8559 26.0506 29.6973 25.2271 29.9278C24.2734 30.1947 23.5667 30.8946 22.9149 31.7052C22.168 32.6343 21.4517 33.736 20.5337 34.7722C19.8369 35.4766 19.1445 36.1631 18.3135 36.7007L4.02622 28.3711C5.9841 27.1766 7.49392 25.3923 9.36383 24.0843C10.1774 23.5054 10.9453 23.1199 11.7681 23.0271C12.6113 22.9319 13.545 23.1178 14.7245 23.8055L15.2421 24.1191C15.3743 23.8079 15.5173 23.498 15.6562 23.1897C15.098 22.8923 14.491 22.4903 13.9422 22.2604C13.1446 21.9262 12.372 21.8656 11.653 21.9467C10.5565 22.0704 9.58959 22.575 8.67362 23.2362C6.8417 24.5587 5.12768 26.5111 2.71482 27.918L0 29.556L17.9109 40L26.1819 35.1788C26.5347 36.0156 27.8835 36.1986 29.0348 35.5273C30.1851 34.8566 30.7864 33.5333 31.1399 32.2861L43 25.3738L25.0776 14.9298Z" fill="#F1F9F0"/>
</g>
<defs>
<clipPath id="clip0_123_6264">
<rect width="43" height="40" fill="white"/>
</clipPath>
</defs>
</svg>
