<svg width="24" height="24" viewBox="0 0 24 24" fill="none" xmlns="http://www.w3.org/2000/svg">
<path d="M14.2 1V6.28C14.2 6.63009 14.339 6.96583 14.5866 7.21338C14.8341 7.46093 15.1699 7.6 15.52 7.6H20.8" stroke="#0D0E0D" stroke-width="1.5" stroke-linecap="round" stroke-linejoin="round"/>
<path d="M18.2857 23H5.71424C5.04741 23 4.40789 22.7425 3.93637 22.284C3.46485 21.8256 3.19995 21.2039 3.19995 20.5556V3.44444C3.19995 2.79614 3.46485 2.17438 3.93637 1.71596C4.40789 1.25754 5.04741 1 5.71424 1H14.5142L20.8 7.11111V20.5556C20.8 21.2039 20.5351 21.8256 20.0635 22.284C19.592 22.7425 18.9525 23 18.2857 23Z" stroke="#0D0E0D" stroke-width="1.5" stroke-linecap="round" stroke-linejoin="round"/>
<path d="M12.3 11.2002V17.8002" stroke="#0D0E0D" stroke-width="1.5" stroke-linecap="round" stroke-linejoin="round"/>
<path d="M9 13.3L12.3 10L15.6 13.3" stroke="#0D0E0D" stroke-width="1.5" stroke-linecap="round" stroke-linejoin="round"/>
</svg>
