<svg width="33" height="26" viewBox="0 0 33 26" fill="none" xmlns="http://www.w3.org/2000/svg">
<path d="M18.1898 0H14.9398V3.12963H13.375V6.37963H11.8102V9.62963H10.125V12.8796H8.43981V16.1296H6.875V19.5H5.31019V22.6296H3.625V24.3148H0.375V26H10.125V24.3148H6.875V21.0648H8.43981V17.8148H21.5602V21.0648H23.125V24.3148H19.875V26H32.875V24.3148H29.7454V22.6296H27.9398V19.5H26.375V16.1296H24.8102V12.8796H23.125V9.62963H21.5602V6.37963H19.7546V3.12963H18.1898V0Z" fill="#33342F"/>
<path d="M16.625 6.37988H14.9398V8.06507H13.375V11.3151H11.6898V14.4447H10.125V16.2503H19.875V14.4447H18.3102V11.3151H16.625V6.37988Z" fill="#F8F2E8"/>
</svg>
