<svg width="26" height="26" viewBox="0 0 26 26" fill="none" xmlns="http://www.w3.org/2000/svg">
<path d="M0 10V16H1V19H2V21H3V22H4V23H5V24H6V25H9V26H13V24H10V23H8H7V22H6V21H5V20H4V19H3V17V16H2V10H3V7H4V6H5V5H6V4H7V3H10V2H13V0H9V1H6V2H5V3H4V4H3V5H2V7H1V10H0Z" fill="#33342F"/>
<path d="M26 10V16H25V19H24V21H23V22H22V23H21V24H20V25H17V26H13V24H16V23H18H19V22H20V21H21V20H22V19H23V17V16H24V10H23V7H22V6H21V5H20V4H19V3H16V2H13V0H17V1H20V2H21V3H22V4H23V5H24V7H25V10H26Z" fill="#33342F"/>
<path d="M13 25V1L18.5 1.5L23.5 7L25 11L24.5 16.5L23 20L19 24L13 25Z" fill="#33342F"/>
</svg>
