<svg width="24" height="24" viewBox="0 0 24 24" fill="none" xmlns="http://www.w3.org/2000/svg">
<g clip-path="url(#clip0_354_59224)">
<path d="M11.5506 1.00087C11.4993 1.00266 11.449 1.00772 11.3965 1.01371C10.561 1.10911 9.85554 1.76816 9.85554 2.90777V4.1983L8.48154 3.40216V4.57712L9.85554 5.37326V12.5193L8.53933 11.7553V12.9302L14.7416 16.5129V15.338L12.9567 14.3107V7.15818L15.2873 8.50649V7.33153L12.9567 5.98322V4.65416C12.9567 2.69087 14.3122 2.61109 15.2039 3.95432C15.4239 4.32733 15.5566 4.77806 15.6019 5.30906L16.5843 5.88049V3.6654C15.684 2.92534 14.5471 2.07274 13.7464 1.66219C13.0458 1.30296 12.4144 1.00543 11.7047 1.00087C11.654 1.00054 11.6018 0.999085 11.5506 1.00087ZM13.9968 9.25127C13.845 9.32659 13.6377 9.43865 13.4767 9.48883V10.1245C13.6234 10.0867 13.8152 9.9955 13.9454 9.93827L21.8876 14.529C20.7738 15.0105 19.7865 14.9065 18.7737 15.0683C18.1952 15.1607 17.6113 15.3545 17.0658 15.8131C16.5719 16.2283 16.1154 16.8649 15.679 17.797C15.0689 17.5005 14.5399 17.4128 14.0803 17.5402C13.5479 17.6877 13.1535 18.0745 12.7897 18.5225C12.3728 19.036 11.973 19.6449 11.4607 20.2176C11.0718 20.6068 10.6853 20.9863 10.2215 21.2834L2.24719 16.6798C3.33996 16.0197 4.18266 15.0336 5.22632 14.3107C5.6804 13.9907 6.10901 13.7777 6.56822 13.7264C7.03885 13.6738 7.56001 13.7765 8.2183 14.1566L8.50722 14.3299C8.58103 14.1579 8.66084 13.9866 8.73836 13.8163C8.42679 13.6519 8.088 13.4297 7.7817 13.3026C7.33655 13.1179 6.9053 13.0844 6.50401 13.1293C5.89201 13.1977 5.35233 13.4765 4.84109 13.842C3.81862 14.5728 2.86196 15.6519 1.51525 16.4294L0 17.3347L9.99679 23.1068L14.6132 20.4423C14.81 20.9048 15.5629 21.0059 16.2055 20.6349C16.8475 20.2642 17.1831 19.5329 17.3804 18.8436L24 15.0233L13.9968 9.25127Z" fill="#0F0F0F"/>
</g>
<defs>
<clipPath id="clip0_354_59224">
<rect width="24" height="24" rx="12" fill="white"/>
</clipPath>
</defs>
</svg>
