<?xml version="1.0" encoding="utf-8"?>
<!-- Generator: Adobe Illustrator 26.5.0, SVG Export Plug-In . SVG Version: 6.00 Build 0)  -->
<svg version="1.1" id="Calque_1" xmlns="http://www.w3.org/2000/svg" xmlns:xlink="http://www.w3.org/1999/xlink" x="0px" y="0px"
	 viewBox="0 0 328.76 328.95" style="enable-background:new 0 0 328.76 328.95;" xml:space="preserve">
<style type="text/css">
	.st0{fill:#FFFFFF;}
</style>
<g>
	<circle class="st0" cx="164.38" cy="164.57" r="159.88"/>
	<path d="M164.38,328.95C73.74,328.95,0,255.21,0,164.57C0,73.93,73.74,0.19,164.38,0.19s164.38,73.74,164.38,164.38
		C328.76,255.21,255.02,328.95,164.38,328.95z M164.38,9.19C78.7,9.19,9,78.89,9,164.57s69.7,155.38,155.38,155.38
		c85.68,0,155.38-69.7,155.38-155.38S250.06,9.19,164.38,9.19z"/>
</g>
<path d="M169.85,49.98c14.19,4.71,26.43,12.78,38.1,21.9c3.33,2.61,5.56,5.22,5.05,9.91c-0.51,4.72-0.11,9.54-0.11,14.62
	c-5.61-2.07-9.32-4.68-10.17-10.93c-0.86-6.3-4.71-11.26-10.42-14.43c-4.87-2.71-9.76-1.42-12.28,3.41
	c-3.91,7.52-1.83,15.67-2.02,23.56c-0.02,0.71,1.49,1.6,2.43,2.16c4.13,2.48,8.28,4.9,12.47,7.27c8.08,4.57,8.09,4.54,6.82,14.56
	c-7.17-4.07-14.15-8.03-21.71-12.32c-0.1,2-0.23,3.41-0.23,4.81c-0.01,20.32,0.09,40.65-0.1,60.97c-0.03,3.33,0.97,5.24,3.89,6.56
	c2.11,0.95,3.96,2.54,6.11,3.31c6.88,2.48,8.67,7.31,6.63,14.57c-5.24-2.99-10.5-5.97-15.73-8.98
	c-12.05-6.95-23.88-14.3-36.21-20.71c-6.46-3.35-9.19-7.38-6.78-14.73c3.71,2.07,7.55,4.21,12.04,6.72c0.12-1.98,0.29-3.5,0.29-5.02
	c0.02-20.16-0.07-40.31,0.09-60.47c0.02-3.21-0.65-5.43-3.72-6.66c-0.76-0.3-1.4-0.94-2.17-1.19c-7.11-2.27-8.62-7.35-6.8-14.44
	c3.92,2.14,7.88,4.31,12.62,6.9c-0.16-13.01-1.71-26.26,13.92-31.36C164.51,49.98,167.18,49.98,169.85,49.98z"/>
<path d="M52.97,208.93c1.58-1.03,2.73-1.93,3.99-2.6c13.76-7.29,25.66-17.12,37.35-27.25c2.37-2.06,4.93-3.96,7.59-5.63
	c12.18-7.68,22.04-7.19,34.26,1.76c-0.56,1.2-1.14,2.47-1.73,3.75c-15.85-8.21-23.39-7.25-37.72,4.72
	c-7.5,6.27-14.94,12.62-22.79,19.27c3.69,2.18,7.46,4.46,11.27,6.67c20.67,11.94,41.42,23.74,61.96,35.91
	c3.64,2.16,6.14,1.75,8.59-0.97c6.54-7.27,12.98-14.63,19.36-22.04c5.37-6.23,10.53-12.83,20.11-11.5c3.08,0.43,6.06,1.5,9.17,2.29
	c2.71-4.25,5.32-8.65,8.24-12.85c5.89-8.48,14.37-12.3,24.41-13.54c8.35-1.03,16.64-2.53,24.95-3.9c0.91-0.15,1.74-0.79,3.26-1.51
	c-10.82-6.23-21.13-12.16-31.43-18.11c-14.2-8.2-28.36-16.47-42.62-24.57c-1.92-1.09-4.29-1.37-7.5-2.35
	c0.12-0.62-0.09-3.22,0.93-3.86c1.47-0.93,4.31-1.28,5.76-0.45c31.4,17.89,62.68,35.98,94.43,54.28
	c-13.07,7.59-25.76,14.97-38.47,22.32c-7.32,4.23-14.77,8.25-21.93,12.72c-2.02,1.26-3.73,3.57-4.75,5.78
	c-2.9,6.29-5.84,12.35-13.04,14.81c-4.79,1.64-9.08,1.38-12.78-3.03c-13.87,7.99-27.74,16.07-41.75,23.92
	c-1.47,0.82-4.16,0.97-5.56,0.17c-30.66-17.5-61.21-35.17-91.78-52.82C54.23,210.01,53.78,209.57,52.97,208.93z"/>
</svg>
